<svg width="316" height="53" viewBox="0 0 316 53" fill="none" xmlns="http://www.w3.org/2000/svg">
<g clip-path="url(#clip0_335_10922)">
<path d="M55.0894 9.56112V0.0605469H60.349V0.917558H56.0547V4.33336H60.2129V5.19037H56.0547V8.69187H60.349V9.54888H55.0894V9.56112Z" fill="white" stroke="white" stroke-width="0.124206" stroke-linecap="round" stroke-linejoin="round"/>
<path d="M68.022 9.5612V5.64343C68.022 4.06408 67.0567 3.17034 65.8191 3.17034C64.4454 3.17034 63.6039 4.211 63.6039 5.58222V9.5612H62.7004V2.54595H63.6039V3.43969H63.6286C64.0865 2.75408 64.8909 2.3623 65.8068 2.3623C67.7621 2.3623 68.9378 3.69679 68.9378 5.64343V9.5612H68.0344H68.022Z" fill="white" stroke="white" stroke-width="0.124206" stroke-linecap="round" stroke-linejoin="round"/>
<path d="M72.0812 9.56112V3.35392H70.5837V2.54588H72.0812V0.0605469H72.9846V2.53364H74.6801V3.34167H72.9846V9.54888H72.0812V9.56112Z" fill="white" stroke="white" stroke-width="0.124206" stroke-linecap="round" stroke-linejoin="round"/>
<path d="M76.7468 6.37801C76.8211 7.77372 78.1205 8.92456 79.4943 8.92456C80.5957 8.92456 81.6476 8.30017 82.0313 7.27175H82.9966C82.4521 8.78989 81.0288 9.7326 79.5066 9.7326C77.4894 9.7326 75.8063 8.11652 75.8063 6.05969C75.8063 4.00287 77.5018 2.3623 79.4943 2.3623C81.6229 2.3623 83.2193 4.17427 83.2193 6.10867C83.2193 6.19437 83.207 6.29231 83.207 6.37801H76.7468ZM82.2912 5.56997C82.0313 4.16203 80.9051 3.17034 79.5066 3.17034C78.1824 3.17034 77.0067 4.1253 76.7592 5.56997H82.3035H82.2912Z" fill="white" stroke="white" stroke-width="0.124206" stroke-linecap="round" stroke-linejoin="round"/>
<path d="M85.2491 9.5612V2.54595H86.1525V3.56212H86.1773C86.4866 2.82754 87.0312 2.43576 88.1697 2.3623V3.31726H88.1574C86.8455 3.43969 86.1401 4.2967 86.1401 5.42306V9.57344H85.2367L85.2491 9.5612Z" fill="white" stroke="white" stroke-width="0.124206" stroke-linecap="round" stroke-linejoin="round"/>
<path d="M91.412 9.56112V3.35392H89.9146V2.54588H91.412V0.0605469H92.3154V2.53364H94.0109V3.34167H92.3154V9.54888H91.412V9.56112Z" fill="white" stroke="white" stroke-width="0.124206" stroke-linecap="round" stroke-linejoin="round"/>
<path d="M101.734 9.56367V8.32713H101.709C101.127 9.19638 100.1 9.72283 98.9492 9.72283C96.8206 9.72283 95.1375 8.13124 95.1375 6.02544C95.1375 3.91964 96.8701 2.35254 98.9492 2.35254C100.125 2.35254 101.14 2.87899 101.709 3.76049H101.734V2.52394H102.637V9.53919H101.734V9.56367ZM101.796 6.06217C101.796 4.49507 100.546 3.17282 98.9368 3.17282C97.328 3.17282 96.0409 4.40936 96.0409 6.07441C96.0409 7.73946 97.2785 8.92704 98.9492 8.92704C100.533 8.92704 101.796 7.64152 101.796 6.06217Z" fill="white" stroke="white" stroke-width="0.124206" stroke-linecap="round" stroke-linejoin="round"/>
<path d="M105.013 1.67662V0.0605469H105.917V1.67662H105.013ZM105.013 9.56112V2.54588H105.917V9.56112H105.013Z" fill="white" stroke="white" stroke-width="0.124206" stroke-linecap="round" stroke-linejoin="round"/>
<path d="M113.59 9.5612V5.64343C113.59 4.06408 112.624 3.17034 111.387 3.17034C110.013 3.17034 109.171 4.211 109.171 5.58222V9.5612H108.268V2.54595H109.171V3.43969H109.196C109.654 2.75408 110.459 2.3623 111.374 2.3623C113.33 2.3623 114.505 3.69679 114.505 5.64343V9.5612H113.602H113.59Z" fill="white" stroke="white" stroke-width="0.124206" stroke-linecap="round" stroke-linejoin="round"/>
<path d="M126.374 9.5612V5.4353C126.374 4.10081 125.73 3.1581 124.443 3.1581C123.156 3.1581 122.512 4.07633 122.512 5.45979V9.54895H121.609V5.4353C121.609 4.06408 120.928 3.14586 119.678 3.14586C118.428 3.14586 117.748 4.05184 117.748 5.4353V9.54895H116.844V2.54595H117.748V3.35399C118.181 2.68062 118.899 2.3623 119.678 2.3623C120.706 2.3623 121.56 2.83978 122.067 3.70904C122.624 2.85203 123.416 2.3623 124.455 2.3623C126.287 2.3623 127.302 3.69679 127.302 5.3496V9.5612H126.398H126.374Z" fill="white" stroke="white" stroke-width="0.124206" stroke-linecap="round" stroke-linejoin="round"/>
<path d="M130.025 6.37801C130.099 7.77372 131.398 8.92456 132.772 8.92456C133.873 8.92456 134.925 8.30017 135.309 7.27175H136.274C135.73 8.78989 134.307 9.7326 132.784 9.7326C130.767 9.7326 129.084 8.11652 129.084 6.05969C129.084 4.00287 130.779 2.3623 132.772 2.3623C134.901 2.3623 136.497 4.17427 136.497 6.10867C136.497 6.19437 136.485 6.29231 136.485 6.37801H130.025ZM135.556 5.56997C135.297 4.16203 134.17 3.17034 132.772 3.17034C131.448 3.17034 130.272 4.1253 130.025 5.56997H135.569H135.556Z" fill="white" stroke="white" stroke-width="0.124206" stroke-linecap="round" stroke-linejoin="round"/>
<path d="M143.923 9.5612V5.64343C143.923 4.06408 142.957 3.17034 141.72 3.17034C140.346 3.17034 139.505 4.211 139.505 5.58222V9.5612H138.601V2.54595H139.505V3.43969H139.529C139.987 2.75408 140.792 2.3623 141.707 2.3623C143.663 2.3623 144.838 3.69679 144.838 5.64343V9.5612H143.935H143.923Z" fill="white" stroke="white" stroke-width="0.124206" stroke-linecap="round" stroke-linejoin="round"/>
<path d="M147.982 9.56112V3.35392H146.484V2.54588H147.982V0.0605469H148.885V2.53364H150.581V3.34167H148.885V9.54888H147.982V9.56112Z" fill="white" stroke="white" stroke-width="0.124206" stroke-linecap="round" stroke-linejoin="round"/>
<path d="M163.266 9.56367V8.32713H163.241C162.659 9.19638 161.632 9.72283 160.481 9.72283C158.353 9.72283 156.669 8.13124 156.669 6.02544C156.669 3.91964 158.402 2.35254 160.481 2.35254C161.657 2.35254 162.672 2.87899 163.241 3.76049H163.266V2.52394H164.169V9.53919H163.266V9.56367ZM163.315 6.06217C163.315 4.49507 162.065 3.17282 160.456 3.17282C158.848 3.17282 157.56 4.40936 157.56 6.07441C157.56 7.73946 158.798 8.92704 160.469 8.92704C162.053 8.92704 163.315 7.64152 163.315 6.06217Z" fill="white" stroke="white" stroke-width="0.124206" stroke-linecap="round" stroke-linejoin="round"/>
<path d="M171.867 9.5612V5.64343C171.867 4.06408 170.902 3.17034 169.664 3.17034C168.29 3.17034 167.449 4.211 167.449 5.58222V9.5612H166.545V2.54595H167.449V3.43969H167.473C167.931 2.75408 168.736 2.3623 169.652 2.3623C171.607 2.3623 172.783 3.69679 172.783 5.64343V9.5612H171.879H171.867Z" fill="white" stroke="white" stroke-width="0.124206" stroke-linecap="round" stroke-linejoin="round"/>
<path d="M181.161 9.56112V8.32458H181.136C180.518 9.23056 179.478 9.72028 178.377 9.72028C176.248 9.72028 174.565 8.12869 174.565 6.02289C174.565 3.9171 176.297 2.34999 178.377 2.34999C179.478 2.34999 180.53 2.8642 181.136 3.73345H181.161V0.0605469H182.065V9.56112H181.161ZM181.223 6.05962C181.223 4.49252 179.985 3.17027 178.364 3.17027C176.743 3.17027 175.468 4.41906 175.468 6.07187C175.468 7.72467 176.693 8.92449 178.377 8.92449C179.948 8.92449 181.223 7.65121 181.223 6.05962Z" fill="white" stroke="white" stroke-width="0.124206" stroke-linecap="round" stroke-linejoin="round"/>
<path d="M190.121 9.56112V0.0605469H191.087V9.56112H190.121Z" fill="white" stroke="white" stroke-width="0.124206" stroke-linecap="round" stroke-linejoin="round"/>
<path d="M198.759 9.5612V5.64343C198.759 4.06408 197.794 3.17034 196.557 3.17034C195.183 3.17034 194.341 4.211 194.341 5.58222V9.5612H193.438V2.54595H194.341V3.43969H194.366C194.824 2.75408 195.628 2.3623 196.544 2.3623C198.5 2.3623 199.675 3.69679 199.675 5.64343V9.5612H198.772H198.759Z" fill="white" stroke="white" stroke-width="0.124206" stroke-linecap="round" stroke-linejoin="round"/>
<path d="M207.385 9.5612V5.64343C207.385 4.06408 206.42 3.17034 205.182 3.17034C203.809 3.17034 202.967 4.211 202.967 5.58222V9.5612H202.064V2.54595H202.967V3.43969H202.992C203.45 2.75408 204.254 2.3623 205.17 2.3623C207.125 2.3623 208.301 3.69679 208.301 5.64343V9.5612H207.398H207.385Z" fill="white" stroke="white" stroke-width="0.124206" stroke-linecap="round" stroke-linejoin="round"/>
<path d="M210.12 6.09642C210.12 4.02735 211.803 2.3623 213.821 2.3623C215.838 2.3623 217.546 4.07633 217.546 6.04745C217.546 8.01858 215.826 9.7326 213.821 9.7326C211.816 9.7326 210.12 8.05531 210.12 6.09642ZM216.642 6.01072C216.642 4.48035 215.392 3.17034 213.821 3.17034C212.249 3.17034 211.036 4.49259 211.036 6.08418C211.036 7.67577 212.298 8.92456 213.833 8.92456C215.368 8.92456 216.63 7.61456 216.63 6.01072H216.642Z" fill="white" stroke="white" stroke-width="0.124206" stroke-linecap="round" stroke-linejoin="round"/>
<path d="M221.679 9.56017L218.684 2.54492H219.662L222.162 8.44605L224.711 2.54492H225.689L222.694 9.56017H221.692H221.679Z" fill="white" stroke="white" stroke-width="0.124206" stroke-linecap="round" stroke-linejoin="round"/>
<path d="M233.449 9.56367V8.32713H233.424C232.842 9.19638 231.815 9.72283 230.664 9.72283C228.536 9.72283 226.852 8.13124 226.852 6.02544C226.852 3.91964 228.585 2.35254 230.664 2.35254C231.84 2.35254 232.855 2.87899 233.424 3.76049H233.449V2.52394H234.352V9.53919H233.449V9.56367ZM233.498 6.06217C233.498 4.49507 232.248 3.17282 230.639 3.17282C229.031 3.17282 227.743 4.40936 227.743 6.07441C227.743 7.73946 228.981 8.92704 230.652 8.92704C232.236 8.92704 233.498 7.64152 233.498 6.06217Z" fill="white" stroke="white" stroke-width="0.124206" stroke-linecap="round" stroke-linejoin="round"/>
<path d="M238.003 9.56112V3.35392H236.505V2.54588H238.003V0.0605469H238.906V2.53364H240.602V3.34167H238.906V9.54888H238.003V9.56112Z" fill="white" stroke="white" stroke-width="0.124206" stroke-linecap="round" stroke-linejoin="round"/>
<path d="M242.743 1.67662V0.0605469H243.646V1.67662H242.743ZM242.743 9.56112V2.54588H243.646V9.56112H242.743Z" fill="white" stroke="white" stroke-width="0.124206" stroke-linecap="round" stroke-linejoin="round"/>
<path d="M245.49 6.09642C245.49 4.02735 247.173 2.3623 249.191 2.3623C251.208 2.3623 252.916 4.07633 252.916 6.04745C252.916 8.01858 251.196 9.7326 249.191 9.7326C247.186 9.7326 245.49 8.05531 245.49 6.09642ZM252 6.01072C252 4.48035 250.75 3.17034 249.178 3.17034C247.607 3.17034 246.394 4.49259 246.394 6.08418C246.394 7.67577 247.656 8.92456 249.191 8.92456C250.725 8.92456 251.988 7.61456 251.988 6.01072H252Z" fill="white" stroke="white" stroke-width="0.124206" stroke-linecap="round" stroke-linejoin="round"/>
<path d="M260.007 9.5612V5.64343C260.007 4.06408 259.042 3.17034 257.804 3.17034C256.431 3.17034 255.589 4.211 255.589 5.58222V9.5612H254.686V2.54595H255.589V3.43969H255.614C256.072 2.75408 256.876 2.3623 257.792 2.3623C259.747 2.3623 260.923 3.69679 260.923 5.64343V9.5612H260.019H260.007Z" fill="white" stroke="white" stroke-width="0.124206" stroke-linecap="round" stroke-linejoin="round"/>
<path d="M31.1299 44.3205C31.1299 44.3205 31.1423 44.3694 31.1299 44.3939C28.0855 49.7931 22.7268 53.013 16.774 53.013C12.4425 53.013 8.3709 51.3847 5.30172 48.4219C2.1954 45.4223 0.487549 41.4066 0.487549 37.1093C0.487549 28.1719 7.62836 21.1689 16.7369 21.1689C22.7391 21.1689 28.6053 24.6337 31.0061 29.5799C31.0061 29.6044 31.0061 29.6289 31.0061 29.6411C30.9938 29.6656 30.969 29.6778 30.9443 29.6778H27.4667C27.4667 29.6778 27.4172 29.6778 27.4048 29.6534C25.0782 26.2253 20.9694 24.0828 16.6874 24.0828C9.78174 24.0828 3.71762 30.192 3.71762 37.1583C3.71762 44.1246 9.79411 50.1114 16.7245 50.1114C20.858 50.1114 24.6945 48.0546 27.5286 44.3327C27.5409 44.3205 27.5657 44.3082 27.5781 44.3082H31.0557C31.0557 44.3082 31.1052 44.3205 31.1175 44.345L31.1299 44.3205ZM47.9609 29.0779C44.5205 29.2738 42.5899 30.4002 41.5008 32.861V29.7268C41.5008 29.7268 41.476 29.6534 41.4265 29.6534H38.4935C38.4935 29.6534 38.4192 29.6778 38.4192 29.7268V52.4009C38.4192 52.4009 38.444 52.4743 38.4935 52.4743H41.4265C41.4265 52.4743 41.5008 52.4498 41.5008 52.4009V39.007C41.5008 35.1872 43.9017 32.6651 47.9238 32.2734H47.9609C47.9609 32.2734 48.0352 32.2489 48.0352 32.1999V29.1269C48.0352 29.1269 48.0352 29.0902 48.0104 29.0779C47.9857 29.0657 47.9733 29.0534 47.9609 29.0534V29.0779ZM72.5268 32.7998C74.7173 35.0893 75.9796 38.1745 75.9796 41.2475C75.9796 41.3944 75.9796 41.5413 75.9549 41.6882C75.9549 41.8351 75.9301 41.9821 75.9301 42.1167C75.9301 42.1535 75.9054 42.1902 75.8559 42.1902H55.0646C55.3493 46.5732 59.3714 50.2583 63.8761 50.2583C67.5517 50.2583 70.8189 48.1281 72.0194 44.9571C72.0194 44.9326 72.0565 44.9081 72.0813 44.9081H75.1876C75.1876 44.9081 75.2371 44.9081 75.2495 44.9326C75.2618 44.9449 75.2618 44.9694 75.2495 44.9938C73.5292 49.7809 68.975 53.0008 63.9133 53.0008C57.2922 53.0008 51.8964 47.6506 51.8964 41.0761C51.8964 37.8929 53.1587 34.8689 55.4606 32.5917C57.7378 30.3267 60.7327 29.0779 63.8638 29.0779C66.9948 29.0779 70.2001 30.4002 72.502 32.7998H72.5268ZM72.8114 39.4355C71.9451 34.9423 68.2943 31.8204 63.8885 31.8204C59.4827 31.8204 55.8814 34.9423 55.0894 39.4355H72.8238H72.8114ZM105.397 29.7146V52.3886C105.397 52.3886 105.372 52.4621 105.323 52.4621H102.389C102.389 52.4621 102.315 52.4376 102.315 52.3886V48.5076C100.397 51.3235 97.0679 52.9885 93.3799 52.9885C90.0261 52.9885 86.9074 51.7642 84.5931 49.5482C82.2665 47.32 80.9918 44.2715 80.9918 40.9781C80.9918 34.2935 86.4371 29.0534 93.3799 29.0534C97.1793 29.0534 100.434 30.7063 102.315 33.5834V29.7023C102.315 29.7023 102.34 29.6289 102.389 29.6289H105.323C105.323 29.6289 105.397 29.6534 105.397 29.7023V29.7146ZM93.3428 31.8204C88.0584 31.8204 84.061 35.8238 84.061 41.1251C84.061 46.4263 88.0707 50.2583 93.3799 50.2583C98.4045 50.2583 102.488 46.1447 102.488 41.0761C102.488 36.0075 98.3797 31.8204 93.3428 31.8204ZM124.901 29.6534H119.48V21.7199C119.48 21.7199 119.456 21.6464 119.406 21.6464H116.473C116.473 21.6464 116.399 21.6709 116.399 21.7199V29.6534H111.647C111.647 29.6534 111.572 29.6778 111.572 29.7268V32.3346C111.572 32.3346 111.597 32.408 111.647 32.408H116.399V52.4009C116.399 52.4009 116.424 52.4743 116.473 52.4743H119.406C119.406 52.4743 119.48 52.4498 119.48 52.4009V32.408H124.901C124.901 32.408 124.975 32.3835 124.975 32.3346V29.7268C124.975 29.7268 124.95 29.6534 124.901 29.6534ZM134.071 21.6464H131.138C131.138 21.6464 131.064 21.6709 131.064 21.7199V26.9476C131.064 26.9476 131.089 27.0211 131.138 27.0211H134.071C134.071 27.0211 134.146 26.9966 134.146 26.9476V21.7199C134.146 21.7199 134.121 21.6464 134.071 21.6464ZM134.071 29.6534H131.138C131.138 29.6534 131.064 29.6778 131.064 29.7268V52.4009C131.064 52.4009 131.089 52.4743 131.138 52.4743H134.071C134.071 52.4743 134.146 52.4498 134.146 52.4009V29.7268C134.146 29.7268 134.121 29.6534 134.071 29.6534ZM162.399 29.6534H159.256C159.256 29.6534 159.207 29.6656 159.194 29.6901L151.039 48.6178L143.019 29.7023C143.019 29.7023 142.982 29.6656 142.957 29.6656H139.814C139.814 29.6656 139.764 29.6656 139.752 29.6901C139.739 29.7146 139.739 29.7391 139.752 29.7513L149.43 52.4254C149.43 52.4254 149.467 52.4621 149.492 52.4621H152.722C152.722 52.4621 152.771 52.4498 152.784 52.4254L162.461 29.7513C162.461 29.7513 162.461 29.7023 162.461 29.6901C162.461 29.6778 162.424 29.6656 162.399 29.6656V29.6534ZM185.913 32.7998C188.104 35.0893 189.366 38.1745 189.366 41.2475C189.366 41.3944 189.366 41.5413 189.341 41.6882C189.341 41.8351 189.317 41.9821 189.317 42.1167C189.317 42.1535 189.292 42.1902 189.242 42.1902H168.451C168.736 46.5732 172.758 50.2583 177.263 50.2583C180.938 50.2583 184.206 48.1281 185.406 44.9571C185.406 44.9326 185.443 44.9081 185.468 44.9081H188.574C188.574 44.9081 188.624 44.9081 188.636 44.9326C188.648 44.9449 188.648 44.9694 188.636 44.9938C186.916 49.7809 182.362 53.0008 177.3 53.0008C170.679 53.0008 165.283 47.6506 165.283 41.0761C165.283 37.8929 166.545 34.8689 168.847 32.5917C171.124 30.3267 174.119 29.0779 177.25 29.0779C180.381 29.0779 183.587 30.4002 185.889 32.7998H185.913ZM186.21 39.4355C185.344 34.9423 181.693 31.8204 177.288 31.8204C172.882 31.8204 169.28 34.9423 168.488 39.4355H186.223H186.21ZM208.45 36.7298L218.4 21.7566C218.4 21.7566 218.412 21.7076 218.4 21.6831C218.4 21.6587 218.363 21.6464 218.338 21.6464H214.737C214.737 21.6464 214.687 21.6464 214.675 21.6831L206.556 33.8649L198.363 21.6831C198.363 21.6831 198.326 21.6587 198.302 21.6587H194.651C194.651 21.6587 194.601 21.6709 194.589 21.6954C194.589 21.7199 194.589 21.7444 194.589 21.7689L204.489 36.7421L193.995 52.3764C193.995 52.3764 193.982 52.4254 193.995 52.4498C193.995 52.4743 194.032 52.4866 194.057 52.4866H197.708C197.708 52.4866 197.757 52.4866 197.769 52.4621L206.556 39.4478L215.219 52.4621C215.219 52.4621 215.256 52.4988 215.281 52.4988H218.969C218.969 52.4988 219.019 52.4866 219.031 52.4621C219.043 52.4376 219.031 52.4131 219.031 52.3886L208.45 36.7543V36.7298ZM230.639 35.7381H222.657C222.657 35.7381 222.583 35.7626 222.583 35.8116V38.5908C222.583 38.5908 222.608 38.6642 222.657 38.6642H230.639C230.639 38.6642 230.714 38.6397 230.714 38.5908V35.8116C230.714 35.8116 230.689 35.7381 230.639 35.7381ZM255.713 49.5482H242.953V21.7199C242.953 21.7199 242.928 21.6464 242.879 21.6464H239.773C239.773 21.6464 239.698 21.6709 239.698 21.7199V52.4009C239.698 52.4009 239.723 52.4743 239.773 52.4743H255.7C255.7 52.4743 255.775 52.4498 255.775 52.4009V49.6217C255.775 49.6217 255.75 49.5482 255.7 49.5482H255.713ZM283.273 29.7146V52.3886C283.273 52.3886 283.249 52.4621 283.199 52.4621H280.266C280.266 52.4621 280.192 52.4376 280.192 52.3886V48.5076C278.274 51.3235 274.945 52.9885 271.257 52.9885C267.903 52.9885 264.784 51.7642 262.47 49.5482C260.143 47.32 258.868 44.2715 258.868 40.9781C258.868 34.2935 264.314 29.0534 271.257 29.0534C275.056 29.0534 278.311 30.7063 280.192 33.5834V29.7023C280.192 29.7023 280.217 29.6289 280.266 29.6289H283.199C283.199 29.6289 283.273 29.6534 283.273 29.7023V29.7146ZM271.219 31.8204C265.935 31.8204 261.938 35.8238 261.938 41.1251C261.938 46.4263 265.947 50.2583 271.257 50.2583C276.281 50.2583 280.365 46.1447 280.365 41.0761C280.365 36.0075 276.256 31.8204 271.219 31.8204ZM315.5 41.0026C315.5 44.2838 314.225 47.32 311.923 49.5605C309.621 51.7887 306.49 53.013 303.112 53.013C299.449 53.013 296.194 51.3725 294.176 48.5198V52.4009C294.176 52.4009 294.152 52.4743 294.102 52.4743H291.169C291.169 52.4743 291.095 52.4498 291.095 52.4009V21.7199C291.095 21.7199 291.12 21.6464 291.169 21.6464H294.102C294.102 21.6464 294.176 21.6709 294.176 21.7199V33.6078C296.218 30.7675 299.56 29.0779 303.112 29.0779C310.055 29.0779 315.5 34.3179 315.5 41.0026ZM309.782 34.4771C308.062 32.7631 305.686 31.8204 303.075 31.8204C298.075 31.8204 294.003 35.9707 294.003 41.0761C294.003 46.1814 298.087 50.2583 303.112 50.2583C308.421 50.2583 312.431 46.3283 312.431 41.1251C312.431 38.554 311.49 36.1911 309.782 34.4771Z" fill="white"/>
</g>
<defs>
<clipPath id="clip0_335_10922">
<rect width="315" height="53" fill="white" transform="translate(0.5)"/>
</clipPath>
</defs>
</svg>